<svg xmlns="http://www.w3.org/2000/svg" viewBox="0 0 320 64" aria-label="Barclays">
  <!-- Eagle (spread-eagle silhouette, simplified) -->
  <g fill="#00AEEF">
    <!-- Head -->
    <circle cx="34" cy="14" r="4.5"/>
    <!-- Body -->
    <path d="M 29.5 18 L 38.5 18 L 37 44 L 34 50 L 31 44 Z"/>
    <!-- Left wing feathers -->
    <path d="M 29.5 20 Q 12 20 2 28 Q 14 26 29.5 25 Z"/>
    <path d="M 29.5 26 Q 8 28 0 35 Q 12 33 29.5 32 Z"/>
    <path d="M 29.5 33 Q 12 36 4 44 Q 14 41 29.5 39 Z"/>
    <!-- Right wing feathers -->
    <path d="M 38.5 20 Q 56 20 66 28 Q 54 26 38.5 25 Z"/>
    <path d="M 38.5 26 Q 60 28 68 35 Q 56 33 38.5 32 Z"/>
    <path d="M 38.5 33 Q 56 36 64 44 Q 54 41 38.5 39 Z"/>
  </g>
  <!-- BARCLAYS wordmark in bold sans-serif -->
  <text x="80" y="46"
        font-family="Helvetica, Arial, sans-serif"
        font-size="42"
        font-weight="700"
        letter-spacing="1"
        fill="#1B57A6">BARCLAYS</text>
</svg>
